<svg width="47" height="47" viewBox="0 0 47 47" fill="none" xmlns="http://www.w3.org/2000/svg">
<g clip-path="url(#clip0_109:405)">
<path d="M25.8022 6.57606C24.3392 6.34872 22.9605 7.35275 22.7281 8.81791C22.6173 9.52791 22.7894 10.2383 23.2129 10.8177C23.6364 11.3976 24.2607 11.7777 24.9707 11.8881C25.1105 11.91 25.2497 11.9204 25.387 11.9204C26.6883 11.9204 27.8354 10.9726 28.0426 9.64911C28.2707 8.18717 27.267 6.80914 25.8051 6.57678C25.804 6.57642 25.8033 6.57642 25.8022 6.57606ZM26.2307 9.36619C26.1583 9.83055 25.7194 10.149 25.2532 10.0762C25.027 10.041 24.8283 9.9202 24.6938 9.73589C24.5594 9.55193 24.5049 9.32638 24.5397 9.10299C24.6067 8.68058 24.9732 8.37793 25.3877 8.37793C25.4307 8.37793 25.4745 8.38116 25.5186 8.38797C25.9837 8.46256 26.3032 8.90146 26.2307 9.36619Z" fill="white"/>
<path d="M28.7741 15.7817C28.6615 16.4896 28.8321 17.1988 29.2546 17.7798C29.6784 18.3621 30.303 18.7436 31.0141 18.8548C31.1536 18.8767 31.292 18.8874 31.4294 18.8871C32.7289 18.8871 33.8778 17.94 34.0882 16.6158C34.199 15.9062 34.0269 15.1958 33.6038 14.6153C33.1803 14.0344 32.5557 13.6535 31.8453 13.5431H31.8457C30.3801 13.3147 29.0021 14.3201 28.7741 15.7817ZM32.1221 15.6957C32.257 15.8807 32.3115 16.107 32.2767 16.3304C32.2025 16.7958 31.7625 17.1149 31.2967 17.0429C31.0711 17.0077 30.8725 16.8862 30.7377 16.7008C30.6039 16.5168 30.5498 16.2931 30.5856 16.0672C30.6516 15.6462 31.0163 15.3446 31.4304 15.3446C31.4742 15.3446 31.5186 15.3478 31.5631 15.355C31.7887 15.3902 31.9873 15.511 32.1221 15.6957Z" fill="white"/>
<path d="M35.1207 25.4842C35.5442 26.0647 36.1689 26.4459 36.8789 26.5563C37.0191 26.5786 37.1596 26.5893 37.2991 26.5893C37.8639 26.5893 38.4125 26.4115 38.878 26.0723C39.4592 25.6488 39.84 25.0248 39.9508 24.3152C40.0616 23.6063 39.8895 22.8963 39.466 22.3161C39.0422 21.7359 38.4179 21.3551 37.7079 21.2443C36.2427 21.0159 34.8651 22.0199 34.6363 23.4833C34.5255 24.1933 34.6976 24.9036 35.1207 25.4842ZM36.4482 23.7666C36.5138 23.3467 36.8785 23.0462 37.292 23.0462C37.3361 23.0462 37.3805 23.0494 37.425 23.0566H37.4257C37.6513 23.0917 37.8499 23.2129 37.9847 23.3976C38.1192 23.5819 38.1741 23.8071 38.1389 24.0323C38.1038 24.2575 37.9826 24.4558 37.7979 24.5902C37.6132 24.7251 37.387 24.7799 37.1614 24.7444C36.9355 24.7093 36.7372 24.5884 36.6024 24.4038C36.4676 24.2187 36.4127 23.9925 36.4482 23.7666Z" fill="white"/>
<path d="M46.0921 5.8159C45.3499 4.79824 44.2594 4.13128 43.022 3.93729L37.867 3.1312C37.3678 3.05302 36.8974 3.39511 36.8196 3.89569C36.741 4.39591 37.0835 4.86494 37.5837 4.94311L42.7383 5.7492C43.4921 5.86718 44.1569 6.27489 44.6108 6.89667C45.0644 7.51845 45.2491 8.27541 45.1308 9.02808L42.1642 27.9555C41.9426 29.3694 40.7166 30.3827 39.3271 30.3827C39.1812 30.3827 39.0334 30.3716 38.8846 30.3483L28.5847 28.7354V22.3121C28.5847 19.7188 26.4738 17.6089 23.8791 17.6089H18.5674L20.5148 5.17798C20.6328 4.42424 21.0412 3.75943 21.6644 3.30547C22.2866 2.85258 23.0432 2.66862 23.7966 2.78767L30.3801 3.82254C30.8796 3.90107 31.3497 3.55934 31.4283 3.05912C31.5068 2.5589 31.1651 2.08951 30.6649 2.01099L24.082 0.976118C22.8449 0.78069 21.6035 1.08154 20.5848 1.82309C19.5653 2.56535 18.8973 3.6558 18.7029 4.89399L16.7114 17.6093H4.70567C2.11097 17.6089 0 19.7188 0 22.3121V41.4683C0 44.063 2.11097 46.1736 4.70567 46.1736H23.8791C26.4738 46.1736 28.5847 44.063 28.5847 41.4683V30.5918L38.6021 32.1602C38.8459 32.1982 39.0879 32.2165 39.3271 32.2165C41.6041 32.2165 43.6129 30.5559 43.9761 28.2395L46.9427 9.31243C47.1367 8.07533 46.8348 6.83356 46.0921 5.8159ZM26.7509 41.4683C26.7509 43.0514 25.4625 44.3398 23.8791 44.3398H4.70567C3.12217 44.3398 1.83379 43.0514 1.83379 41.4683V22.3121C1.83379 20.73 3.12217 19.4431 4.70567 19.4431H17.4934H17.497H17.4999H23.8791C25.4625 19.4431 26.7506 20.73 26.7506 22.3121V41.4683H26.7509Z" fill="white"/>
<path d="M7.27494 22.877C5.79221 22.877 4.58594 24.0825 4.58594 25.5645C4.58594 27.0466 5.79221 28.2525 7.27494 28.2525C8.75911 28.2525 9.96646 27.0466 9.96646 25.5645C9.96646 24.0825 8.75911 22.877 7.27494 22.877ZM7.27494 26.4183C6.80341 26.4183 6.41973 26.0354 6.41973 25.5645C6.41973 25.0941 6.80341 24.7107 7.27494 24.7107C7.74791 24.7107 8.13267 25.0941 8.13267 25.5645C8.13267 26.0354 7.74791 26.4183 7.27494 26.4183Z" fill="white"/>
<path d="M14.3238 28.8242C12.841 28.8242 11.6348 30.0301 11.6348 31.5118C11.6348 32.9952 12.841 34.2022 14.3238 34.2022C15.8065 34.2022 17.0128 32.9956 17.0128 31.5118C17.0128 30.0301 15.8065 28.8242 14.3238 28.8242ZM14.3238 32.3684C13.8522 32.3684 13.4686 31.9844 13.4686 31.5121C13.4686 31.0413 13.8522 30.6584 14.3238 30.6584C14.7953 30.6584 15.179 31.0413 15.179 31.5121C15.179 31.9844 14.7953 32.3684 14.3238 32.3684Z" fill="white"/>
<path d="M21.3081 22.9053C19.8254 22.9053 18.6191 24.1112 18.6191 25.5932C18.6191 27.0752 19.8254 28.2808 21.3081 28.2808C22.7923 28.2808 23.9997 27.0752 23.9997 25.5932C23.9997 24.1112 22.792 22.9053 21.3081 22.9053ZM21.3081 26.447C20.8366 26.447 20.4529 26.064 20.4529 25.5932C20.4529 25.1224 20.8366 24.7394 21.3081 24.7394C21.7811 24.7394 22.1659 25.1224 22.1659 25.5932C22.1659 26.064 21.7811 26.447 21.3081 26.447Z" fill="white"/>
<path d="M7.27494 35.499C5.79221 35.499 4.58594 36.7046 4.58594 38.1866C4.58594 39.6686 5.79221 40.8745 7.27494 40.8745C8.75911 40.8745 9.96646 39.6686 9.96646 38.1866C9.96646 36.7046 8.75911 35.499 7.27494 35.499ZM7.27494 39.0404C6.80341 39.0404 6.41973 38.6574 6.41973 38.1866C6.41973 37.7158 6.80341 37.3328 7.27494 37.3328C7.74791 37.3328 8.13267 37.7158 8.13267 38.1866C8.13267 38.6574 7.74791 39.0404 7.27494 39.0404Z" fill="white"/>
<path d="M21.3081 35.5273C19.8254 35.5273 18.6191 36.7329 18.6191 38.2149C18.6191 39.6969 19.8254 40.9028 21.3081 40.9028C22.7923 40.9028 23.9997 39.6969 23.9997 38.2149C23.9997 36.7329 22.792 35.5273 21.3081 35.5273ZM21.3081 39.0687C20.8366 39.0687 20.4529 38.6857 20.4529 38.2149C20.4529 37.7441 20.8366 37.3611 21.3081 37.3611C21.7811 37.3611 22.1659 37.7441 22.1659 38.2149C22.1659 38.6857 21.7811 39.0687 21.3081 39.0687Z" fill="white"/>
<path d="M33.9968 4.3829L34.0126 4.38541C34.0635 4.39402 34.1141 4.39832 34.1643 4.39832C34.6046 4.39832 34.9929 4.08026 35.0675 3.63203C35.1507 3.13253 34.8133 2.65992 34.3142 2.57672L34.2984 2.57421C33.7978 2.49067 33.3263 2.82845 33.2431 3.32795C33.1599 3.8271 33.4973 4.29971 33.9968 4.3829Z" fill="white"/>
</g>
<defs>
<clipPath id="clip0_109:405">
<rect width="47" height="47" fill="white"/>
</clipPath>
</defs>
</svg>
